<svg id="stars" viewBox="0 0 50 100" xmlns="http://www.w3.org/2000/svg"><circle fill="white" cx="17" cy="15" r="0.2"></circle><circle fill="white" cx="29" cy="35" r="0.2"></circle><circle fill="white" cx="22" cy="88" r="0.2"></circle><circle fill="white" cx="99" cy="10" r="0.2"></circle><circle fill="white" cx="2" cy="11" r="0.2"></circle><circle fill="white" cx="26" cy="71" r="0.2"></circle><circle fill="white" cx="25" cy="14" r="0.2"></circle><circle fill="white" cx="1" cy="3" r="0.2"></circle><circle fill="white" cx="82" cy="42" r="0.2"></circle><circle fill="white" cx="61" cy="100" r="0.2"></circle><circle fill="white" cx="18" cy="89" r="0.2"></circle><circle fill="white" cx="85" cy="65" r="0.2"></circle><circle fill="white" cx="46" cy="31" r="0.2"></circle><circle fill="white" cx="42" cy="59" r="0.2"></circle><circle fill="white" cx="84" cy="4" r="0.2"></circle><circle fill="white" cx="59" cy="36" r="0.2"></circle><circle fill="white" cx="57" cy="29" r="0.2"></circle><circle fill="white" cx="30" cy="47" r="0.2"></circle><circle fill="white" cx="21" cy="34" r="0.2"></circle><circle fill="white" cx="88" cy="14" r="0.2"></circle><circle fill="white" cx="34" cy="93" r="0.2"></circle><circle fill="white" cx="15" cy="86" r="0.2"></circle><circle fill="white" cx="13" cy="76" r="0.2"></circle><circle fill="white" cx="25" cy="52" r="0.2"></circle><circle fill="white" cx="63" cy="96" r="0.2"></circle><circle fill="white" cx="99" cy="23" r="0.2"></circle><circle fill="white" cx="77" cy="38" r="0.2"></circle><circle fill="white" cx="54" cy="74" r="0.2"></circle><circle fill="white" cx="91" cy="88" r="0.2"></circle><circle fill="white" cx="47" cy="60" r="0.2"></circle><circle fill="white" cx="13" cy="66" r="0.2"></circle><circle fill="white" cx="62" cy="65" r="0.2"></circle><circle fill="white" cx="33" cy="6" r="0.2"></circle><circle fill="white" cx="37" cy="97" r="0.2"></circle><circle fill="white" cx="57" cy="87" r="0.2"></circle><circle fill="white" cx="50" cy="1" r="0.2"></circle><circle fill="white" cx="90" cy="75" r="0.2"></circle><circle fill="white" cx="87" cy="75" r="0.2"></circle><circle fill="white" cx="57" cy="10" r="0.2"></circle><circle fill="white" cx="12" cy="93" r="0.2"></circle><circle fill="white" cx="82" cy="67" r="0.2"></circle><circle fill="white" cx="77" cy="25" r="0.2"></circle><circle fill="white" cx="4" cy="81" r="0.2"></circle><circle fill="white" cx="96" cy="27" r="0.2"></circle><circle fill="white" cx="33" cy="72" r="0.2"></circle><circle fill="white" cx="23" cy="7" r="0.2"></circle><circle fill="white" cx="41" cy="31" r="0.2"></circle><circle fill="white" cx="1" cy="80" r="0.2"></circle><circle fill="white" cx="76" cy="52" r="0.2"></circle><circle fill="white" cx="32" cy="93" r="0.2"></circle><circle fill="white" cx="90" cy="94" r="0.2"></circle><circle fill="white" cx="40" cy="67" r="0.2"></circle><circle fill="white" cx="6" cy="46" r="0.2"></circle><circle fill="white" cx="68" cy="17" r="0.2"></circle><circle fill="white" cx="56" cy="52" r="0.2"></circle><circle fill="white" cx="53" cy="61" r="0.2"></circle><circle fill="white" cx="55" cy="82" r="0.2"></circle><circle fill="white" cx="2" cy="76" r="0.2"></circle><circle fill="white" cx="40" cy="84" r="0.2"></circle><circle fill="white" cx="17" cy="34" r="0.2"></circle><circle fill="white" cx="26" cy="31" r="0.2"></circle><circle fill="white" cx="69" cy="39" r="0.2"></circle><circle fill="white" cx="95" cy="7" r="0.2"></circle><circle fill="white" cx="13" cy="68" r="0.2"></circle><circle fill="white" cx="4" cy="28" r="0.2"></circle><circle fill="white" cx="93" cy="85" r="0.2"></circle><circle fill="white" cx="53" cy="50" r="0.2"></circle><circle fill="white" cx="96" cy="100" r="0.2"></circle><circle fill="white" cx="95" cy="56" r="0.2"></circle><circle fill="white" cx="53" cy="30" r="0.2"></circle><circle fill="white" cx="31" cy="73" r="0.2"></circle><circle fill="white" cx="15" cy="62" r="0.2"></circle><circle fill="white" cx="46" cy="99" r="0.2"></circle><circle fill="white" cx="51" cy="52" r="0.2"></circle><circle fill="white" cx="4" cy="65" r="0.2"></circle><circle fill="white" cx="43" cy="3" r="0.2"></circle><circle fill="white" cx="14" cy="16" r="0.2"></circle><circle fill="white" cx="59" cy="41" r="0.2"></circle><circle fill="white" cx="66" cy="86" r="0.2"></circle><circle fill="white" cx="82" cy="39" r="0.2"></circle><circle fill="white" cx="85" cy="41" r="0.2"></circle><circle fill="white" cx="98" cy="86" r="0.2"></circle><circle fill="white" cx="48" cy="87" r="0.2"></circle><circle fill="white" cx="45" cy="52" r="0.2"></circle><circle fill="white" cx="7" cy="23" r="0.2"></circle><circle fill="white" cx="17" cy="9" r="0.2"></circle><circle fill="white" cx="45" cy="45" r="0.2"></circle><circle fill="white" cx="85" cy="50" r="0.2"></circle><circle fill="white" cx="18" cy="49" r="0.2"></circle><circle fill="white" cx="60" cy="52" r="0.2"></circle><circle fill="white" cx="29" cy="73" r="0.2"></circle><circle fill="white" cx="60" cy="23" r="0.2"></circle><circle fill="white" cx="64" cy="44" r="0.2"></circle><circle fill="white" cx="79" cy="7" r="0.2"></circle><circle fill="white" cx="12" cy="38" r="0.2"></circle><circle fill="white" cx="71" cy="30" r="0.2"></circle><circle fill="white" cx="76" cy="47" r="0.2"></circle><circle fill="white" cx="44" cy="65" r="0.2"></circle><circle fill="white" cx="2" cy="74" r="0.2"></circle><circle fill="white" cx="42" cy="63" r="0.2"></circle><circle fill="white" cx="96" cy="83" r="0.2"></circle><circle fill="white" cx="51" cy="65" r="0.2"></circle><circle fill="white" cx="27" cy="79" r="0.2"></circle><circle fill="white" cx="35" cy="40" r="0.2"></circle><circle fill="white" cx="26" cy="96" r="0.2"></circle><circle fill="white" cx="23" cy="7" r="0.2"></circle><circle fill="white" cx="75" cy="31" r="0.2"></circle><circle fill="white" cx="58" cy="87" r="0.2"></circle><circle fill="white" cx="76" cy="25" r="0.2"></circle><circle fill="white" cx="33" cy="82" r="0.2"></circle><circle fill="white" cx="41" cy="67" r="0.2"></circle><circle fill="white" cx="88" cy="95" r="0.2"></circle><circle fill="white" cx="32" cy="53" r="0.2"></circle><circle fill="white" cx="63" cy="86" r="0.2"></circle><circle fill="white" cx="61" cy="6" r="0.2"></circle><circle fill="white" cx="31" cy="28" r="0.2"></circle><circle fill="white" cx="38" cy="73" r="0.2"></circle><circle fill="white" cx="93" cy="34" r="0.2"></circle><circle fill="white" cx="43" cy="63" r="0.2"></circle><circle fill="white" cx="99" cy="13" r="0.2"></circle><circle fill="white" cx="83" cy="19" r="0.2"></circle><circle fill="white" cx="97" cy="38" r="0.2"></circle><circle fill="white" cx="71" cy="49" r="0.2"></circle><circle fill="white" cx="85" cy="34" r="0.2"></circle><circle fill="white" cx="28" cy="18" r="0.2"></circle><circle fill="white" cx="24" cy="32" r="0.2"></circle><circle fill="white" cx="85" cy="10" r="0.2"></circle><circle fill="white" cx="22" cy="58" r="0.2"></circle><circle fill="white" cx="57" cy="42" r="0.2"></circle><circle fill="white" cx="35" cy="47" r="0.2"></circle><circle fill="white" cx="52" cy="39" r="0.2"></circle><circle fill="white" cx="31" cy="1" r="0.2"></circle><circle fill="white" cx="69" cy="99" r="0.2"></circle><circle fill="white" cx="51" cy="100" r="0.2"></circle><circle fill="white" cx="23" cy="38" r="0.2"></circle><circle fill="white" cx="98" cy="81" r="0.2"></circle><circle fill="white" cx="78" cy="40" r="0.2"></circle><circle fill="white" cx="27" cy="33" r="0.2"></circle><circle fill="white" cx="21" cy="81" r="0.2"></circle><circle fill="white" cx="9" cy="2" r="0.2"></circle><circle fill="white" cx="35" cy="39" r="0.2"></circle><circle fill="white" cx="89" cy="66" r="0.2"></circle><circle fill="white" cx="22" cy="33" r="0.2"></circle><circle fill="white" cx="8" cy="55" r="0.2"></circle><circle fill="white" cx="98" cy="61" r="0.2"></circle><circle fill="white" cx="49" cy="18" r="0.2"></circle><circle fill="white" cx="71" cy="2" r="0.2"></circle><circle fill="white" cx="97" cy="37" r="0.2"></circle><circle fill="white" cx="31" cy="62" r="0.2"></circle><circle fill="white" cx="41" cy="60" r="0.2"></circle><circle fill="white" cx="36" cy="97" r="0.2"></circle><circle fill="white" cx="100" cy="10" r="0.2"></circle><circle fill="white" cx="51" cy="29" r="0.2"></circle><circle fill="white" cx="93" cy="26" r="0.2"></circle><circle fill="white" cx="44" cy="88" r="0.2"></circle><circle fill="white" cx="30" cy="6" r="0.2"></circle><circle fill="white" cx="56" cy="28" r="0.2"></circle><circle fill="white" cx="18" cy="64" r="0.2"></circle><circle fill="white" cx="52" cy="38" r="0.2"></circle><circle fill="white" cx="98" cy="81" r="0.2"></circle><circle fill="white" cx="11" cy="35" r="0.2"></circle><circle fill="white" cx="47" cy="87" r="0.2"></circle><circle fill="white" cx="97" cy="17" r="0.2"></circle><circle fill="white" cx="24" cy="45" r="0.2"></circle><circle fill="white" cx="63" cy="61" r="0.2"></circle><circle fill="white" cx="12" cy="86" r="0.2"></circle><circle fill="white" cx="68" cy="3" r="0.2"></circle><circle fill="white" cx="99" cy="14" r="0.2"></circle><circle fill="white" cx="60" cy="27" r="0.2"></circle><circle fill="white" cx="39" cy="83" r="0.2"></circle><circle fill="white" cx="39" cy="76" r="0.2"></circle><circle fill="white" cx="47" cy="100" r="0.2"></circle><circle fill="white" cx="23" cy="10" r="0.2"></circle><circle fill="white" cx="8" cy="7" r="0.2"></circle><circle fill="white" cx="2" cy="58" r="0.2"></circle><circle fill="white" cx="97" cy="12" r="0.2"></circle><circle fill="white" cx="25" cy="10" r="0.2"></circle><circle fill="white" cx="47" cy="66" r="0.2"></circle><circle fill="white" cx="58" cy="91" r="0.2"></circle><circle fill="white" cx="47" cy="69" r="0.2"></circle><circle fill="white" cx="17" cy="70" r="0.2"></circle><circle fill="white" cx="1" cy="100" r="0.2"></circle><circle fill="white" cx="29" cy="11" r="0.2"></circle><circle fill="white" cx="55" cy="65" r="0.2"></circle><circle fill="white" cx="28" cy="79" r="0.2"></circle><circle fill="white" cx="39" cy="62" r="0.2"></circle><circle fill="white" cx="39" cy="26" r="0.2"></circle><circle fill="white" cx="80" cy="40" r="0.2"></circle><circle fill="white" cx="31" cy="10" r="0.2"></circle><circle fill="white" cx="24" cy="63" r="0.2"></circle><circle fill="white" cx="73" cy="37" r="0.2"></circle><circle fill="white" cx="62" cy="66" r="0.2"></circle><circle fill="white" cx="97" cy="20" r="0.2"></circle><circle fill="white" cx="98" cy="52" r="0.2"></circle><circle fill="white" cx="82" cy="10" r="0.2"></circle><circle fill="white" cx="39" cy="79" r="0.2"></circle><circle fill="white" cx="7" cy="44" r="0.2"></circle><circle fill="white" cx="66" cy="8" r="0.2"></circle><circle fill="white" cx="65" cy="92" r="0.2"></circle><circle fill="white" cx="16" cy="83" r="0.2"></circle>
<circle fill="white" cx="45" cy="98" r="0.1"></circle><circle fill="white" cx="51" cy="45" r="0.1"></circle><circle fill="white" cx="96" cy="97" r="0.1"></circle><circle fill="white" cx="91" cy="35" r="0.1"></circle><circle fill="white" cx="14" cy="60" r="0.1"></circle><circle fill="white" cx="38" cy="64" r="0.1"></circle><circle fill="white" cx="71" cy="64" r="0.1"></circle><circle fill="white" cx="73" cy="61" r="0.1"></circle><circle fill="white" cx="6" cy="42" r="0.1"></circle><circle fill="white" cx="38" cy="71" r="0.1"></circle><circle fill="white" cx="43" cy="48" r="0.1"></circle><circle fill="white" cx="68" cy="3" r="0.1"></circle><circle fill="white" cx="24" cy="47" r="0.1"></circle><circle fill="white" cx="88" cy="43" r="0.1"></circle><circle fill="white" cx="84" cy="94" r="0.1"></circle><circle fill="white" cx="35" cy="39" r="0.1"></circle><circle fill="white" cx="30" cy="69" r="0.1"></circle><circle fill="white" cx="46" cy="94" r="0.1"></circle><circle fill="white" cx="14" cy="3" r="0.1"></circle><circle fill="white" cx="38" cy="22" r="0.1"></circle><circle fill="white" cx="87" cy="58" r="0.1"></circle><circle fill="white" cx="9" cy="51" r="0.1"></circle><circle fill="white" cx="84" cy="21" r="0.1"></circle><circle fill="white" cx="36" cy="90" r="0.1"></circle><circle fill="white" cx="82" cy="34" r="0.1"></circle><circle fill="white" cx="81" cy="83" r="0.1"></circle><circle fill="white" cx="77" cy="63" r="0.1"></circle><circle fill="white" cx="24" cy="52" r="0.1"></circle><circle fill="white" cx="39" cy="31" r="0.1"></circle><circle fill="white" cx="16" cy="56" r="0.1"></circle><circle fill="white" cx="25" cy="52" r="0.1"></circle><circle fill="white" cx="88" cy="7" r="0.1"></circle><circle fill="white" cx="48" cy="78" r="0.1"></circle><circle fill="white" cx="6" cy="51" r="0.1"></circle><circle fill="white" cx="88" cy="19" r="0.1"></circle><circle fill="white" cx="13" cy="98" r="0.1"></circle><circle fill="white" cx="47" cy="81" r="0.1"></circle><circle fill="white" cx="66" cy="84" r="0.1"></circle><circle fill="white" cx="21" cy="83" r="0.1"></circle><circle fill="white" cx="94" cy="40" r="0.1"></circle><circle fill="white" cx="72" cy="13" r="0.1"></circle><circle fill="white" cx="53" cy="95" r="0.1"></circle><circle fill="white" cx="16" cy="7" r="0.1"></circle><circle fill="white" cx="11" cy="74" r="0.1"></circle><circle fill="white" cx="58" cy="16" r="0.1"></circle><circle fill="white" cx="48" cy="51" r="0.1"></circle><circle fill="white" cx="57" cy="32" r="0.1"></circle><circle fill="white" cx="83" cy="51" r="0.1"></circle><circle fill="white" cx="42" cy="71" r="0.1"></circle><circle fill="white" cx="69" cy="8" r="0.1"></circle><circle fill="white" cx="20" cy="100" r="0.1"></circle><circle fill="white" cx="11" cy="29" r="0.1"></circle><circle fill="white" cx="25" cy="69" r="0.1"></circle><circle fill="white" cx="1" cy="83" r="0.1"></circle><circle fill="white" cx="16" cy="95" r="0.1"></circle><circle fill="white" cx="90" cy="77" r="0.1"></circle><circle fill="white" cx="28" cy="100" r="0.1"></circle><circle fill="white" cx="81" cy="15" r="0.1"></circle><circle fill="white" cx="18" cy="28" r="0.1"></circle><circle fill="white" cx="17" cy="6" r="0.1"></circle><circle fill="white" cx="43" cy="45" r="0.1"></circle><circle fill="white" cx="75" cy="47" r="0.1"></circle><circle fill="white" cx="69" cy="29" r="0.1"></circle><circle fill="white" cx="64" cy="37" r="0.1"></circle><circle fill="white" cx="21" cy="24" r="0.1"></circle><circle fill="white" cx="31" cy="93" r="0.1"></circle><circle fill="white" cx="21" cy="66" r="0.1"></circle><circle fill="white" cx="87" cy="52" r="0.1"></circle><circle fill="white" cx="38" cy="69" r="0.1"></circle><circle fill="white" cx="90" cy="25" r="0.1"></circle><circle fill="white" cx="86" cy="81" r="0.1"></circle><circle fill="white" cx="30" cy="12" r="0.1"></circle><circle fill="white" cx="32" cy="9" r="0.1"></circle><circle fill="white" cx="1" cy="6" r="0.1"></circle><circle fill="white" cx="51" cy="86" r="0.1"></circle><circle fill="white" cx="31" cy="11" r="0.1"></circle><circle fill="white" cx="80" cy="26" r="0.1"></circle><circle fill="white" cx="79" cy="55" r="0.1"></circle><circle fill="white" cx="11" cy="98" r="0.1"></circle><circle fill="white" cx="47" cy="65" r="0.1"></circle><circle fill="white" cx="64" cy="76" r="0.1"></circle><circle fill="white" cx="68" cy="97" r="0.1"></circle><circle fill="white" cx="52" cy="15" r="0.1"></circle><circle fill="white" cx="37" cy="24" r="0.1"></circle><circle fill="white" cx="31" cy="5" r="0.1"></circle><circle fill="white" cx="71" cy="7" r="0.1"></circle><circle fill="white" cx="91" cy="29" r="0.1"></circle><circle fill="white" cx="63" cy="67" r="0.1"></circle><circle fill="white" cx="1" cy="84" r="0.1"></circle><circle fill="white" cx="34" cy="63" r="0.1"></circle><circle fill="white" cx="27" cy="5" r="0.1"></circle><circle fill="white" cx="56" cy="75" r="0.1"></circle><circle fill="white" cx="43" cy="97" r="0.1"></circle><circle fill="white" cx="33" cy="14" r="0.1"></circle><circle fill="white" cx="88" cy="79" r="0.1"></circle><circle fill="white" cx="74" cy="100" r="0.1"></circle><circle fill="white" cx="16" cy="3" r="0.1"></circle><circle fill="white" cx="11" cy="87" r="0.1"></circle><circle fill="white" cx="12" cy="63" r="0.1"></circle><circle fill="white" cx="83" cy="78" r="0.1"></circle><circle fill="white" cx="83" cy="10" r="0.1"></circle><circle fill="white" cx="9" cy="16" r="0.1"></circle><circle fill="white" cx="51" cy="15" r="0.1"></circle><circle fill="white" cx="89" cy="2" r="0.1"></circle><circle fill="white" cx="95" cy="76" r="0.1"></circle><circle fill="white" cx="98" cy="74" r="0.1"></circle><circle fill="white" cx="98" cy="56" r="0.1"></circle><circle fill="white" cx="76" cy="64" r="0.1"></circle><circle fill="white" cx="24" cy="54" r="0.1"></circle><circle fill="white" cx="78" cy="84" r="0.1"></circle><circle fill="white" cx="70" cy="18" r="0.1"></circle><circle fill="white" cx="68" cy="61" r="0.1"></circle><circle fill="white" cx="2" cy="80" r="0.1"></circle><circle fill="white" cx="66" cy="76" r="0.1"></circle><circle fill="white" cx="80" cy="98" r="0.1"></circle><circle fill="white" cx="13" cy="54" r="0.1"></circle><circle fill="white" cx="5" cy="84" r="0.1"></circle><circle fill="white" cx="84" cy="99" r="0.1"></circle><circle fill="white" cx="13" cy="62" r="0.1"></circle><circle fill="white" cx="11" cy="26" r="0.1"></circle><circle fill="white" cx="70" cy="79" r="0.1"></circle><circle fill="white" cx="26" cy="68" r="0.1"></circle><circle fill="white" cx="64" cy="49" r="0.1"></circle><circle fill="white" cx="82" cy="45" r="0.1"></circle><circle fill="white" cx="36" cy="31" r="0.1"></circle><circle fill="white" cx="2" cy="5" r="0.1"></circle><circle fill="white" cx="30" cy="36" r="0.1"></circle><circle fill="white" cx="100" cy="63" r="0.1"></circle><circle fill="white" cx="6" cy="84" r="0.1"></circle><circle fill="white" cx="46" cy="86" r="0.1"></circle><circle fill="white" cx="41" cy="15" r="0.1"></circle><circle fill="white" cx="84" cy="41" r="0.1"></circle><circle fill="white" cx="67" cy="82" r="0.1"></circle><circle fill="white" cx="60" cy="82" r="0.1"></circle><circle fill="white" cx="66" cy="27" r="0.1"></circle><circle fill="white" cx="85" cy="67" r="0.1"></circle><circle fill="white" cx="38" cy="62" r="0.1"></circle><circle fill="white" cx="76" cy="83" r="0.1"></circle><circle fill="white" cx="16" cy="11" r="0.1"></circle><circle fill="white" cx="28" cy="68" r="0.1"></circle><circle fill="white" cx="55" cy="55" r="0.1"></circle><circle fill="white" cx="64" cy="46" r="0.1"></circle><circle fill="white" cx="88" cy="61" r="0.1"></circle><circle fill="white" cx="42" cy="2" r="0.1"></circle><circle fill="white" cx="35" cy="31" r="0.1"></circle><circle fill="white" cx="85" cy="74" r="0.1"></circle><circle fill="white" cx="17" cy="100" r="0.1"></circle><circle fill="white" cx="60" cy="2" r="0.1"></circle><circle fill="white" cx="10" cy="43" r="0.1"></circle><circle fill="white" cx="89" cy="49" r="0.1"></circle><circle fill="white" cx="55" cy="44" r="0.1"></circle><circle fill="white" cx="60" cy="9" r="0.1"></circle><circle fill="white" cx="3" cy="57" r="0.1"></circle><circle fill="white" cx="45" cy="76" r="0.1"></circle><circle fill="white" cx="29" cy="2" r="0.1"></circle><circle fill="white" cx="5" cy="36" r="0.1"></circle><circle fill="white" cx="62" cy="5" r="0.1"></circle><circle fill="white" cx="35" cy="97" r="0.1"></circle><circle fill="white" cx="7" cy="85" r="0.1"></circle><circle fill="white" cx="76" cy="69" r="0.1"></circle><circle fill="white" cx="63" cy="51" r="0.1"></circle><circle fill="white" cx="66" cy="43" r="0.1"></circle><circle fill="white" cx="92" cy="1" r="0.1"></circle><circle fill="white" cx="96" cy="82" r="0.1"></circle><circle fill="white" cx="85" cy="77" r="0.1"></circle><circle fill="white" cx="79" cy="6" r="0.1"></circle><circle fill="white" cx="3" cy="85" r="0.1"></circle><circle fill="white" cx="58" cy="81" r="0.1"></circle><circle fill="white" cx="94" cy="93" r="0.1"></circle><circle fill="white" cx="66" cy="23" r="0.1"></circle><circle fill="white" cx="57" cy="5" r="0.1"></circle><circle fill="white" cx="96" cy="40" r="0.1"></circle><circle fill="white" cx="38" cy="69" r="0.1"></circle><circle fill="white" cx="79" cy="42" r="0.1"></circle><circle fill="white" cx="39" cy="88" r="0.1"></circle><circle fill="white" cx="19" cy="23" r="0.1"></circle><circle fill="white" cx="79" cy="77" r="0.1"></circle><circle fill="white" cx="31" cy="27" r="0.1"></circle><circle fill="white" cx="28" cy="98" r="0.1"></circle><circle fill="white" cx="20" cy="32" r="0.1"></circle><circle fill="white" cx="13" cy="57" r="0.1"></circle><circle fill="white" cx="52" cy="13" r="0.1"></circle><circle fill="white" cx="74" cy="13" r="0.1"></circle><circle fill="white" cx="17" cy="87" r="0.1"></circle><circle fill="white" cx="87" cy="50" r="0.1"></circle><circle fill="white" cx="45" cy="78" r="0.1"></circle><circle fill="white" cx="58" cy="6" r="0.1"></circle><circle fill="white" cx="91" cy="92" r="0.1"></circle><circle fill="white" cx="84" cy="20" r="0.1"></circle><circle fill="white" cx="78" cy="27" r="0.1"></circle><circle fill="white" cx="71" cy="24" r="0.1"></circle><circle fill="white" cx="33" cy="17" r="0.1"></circle><circle fill="white" cx="16" cy="62" r="0.1"></circle><circle fill="white" cx="89" cy="28" r="0.1"></circle><circle fill="white" cx="29" cy="46" r="0.1"></circle><circle fill="white" cx="76" cy="10" r="0.1"></circle><circle fill="white" cx="75" cy="83" r="0.1"></circle><circle fill="white" cx="91" cy="44" r="0.1"></circle><circle fill="white" cx="59" cy="74" r="0.1"></circle><circle fill="white" cx="57" cy="34" r="0.1"></circle></svg>

